<?xml version="1.0" encoding="UTF-8" standalone="no"?>
<!DOCTYPE svg PUBLIC "-//W3C//DTD SVG 1.1//EN" "http://www.w3.org/Graphics/SVG/1.1/DTD/svg11.dtd">
<svg width="100%" height="100%" viewBox="0 0 1081 1268" version="1.1" xmlns="http://www.w3.org/2000/svg" xmlns:xlink="http://www.w3.org/1999/xlink" xml:space="preserve" xmlns:serif="http://www.serif.com/" style="fill-rule:evenodd;clip-rule:evenodd;stroke-linejoin:round;stroke-miterlimit:2;">
    <g transform="matrix(1,0,0,1,-459.59,-366.065)">
        <g transform="matrix(0.813463,0,0,0.813463,-218.161,-222.369)">
            <g transform="matrix(0.875,0,0,1,185.601,0)">
                <path d="M1385,788.362C1385,768.845 1366.89,753 1344.59,753L1177.41,753C1155.11,753 1137,768.845 1137,788.362C1137,807.879 1155.11,823.724 1177.41,823.724L1344.59,823.724C1366.89,823.724 1385,807.879 1385,788.362Z"/>
            </g>
            <g transform="matrix(1.125,0,0,1,387.299,749.638)">
                <path d="M1385,788.362C1385,768.845 1370.91,753 1353.57,753L1168.43,753C1151.09,753 1137,768.845 1137,788.362C1137,807.879 1151.09,823.724 1168.43,823.724L1353.57,823.724C1370.91,823.724 1385,807.879 1385,788.362Z"/>
            </g>
            <g transform="matrix(0.830645,0,0,1,-88.0197,332.369)">
                <path d="M1385,788.362C1385,768.845 1365.92,753 1342.43,753L1179.57,753C1156.08,753 1137,768.845 1137,788.362C1137,807.879 1156.08,823.724 1179.57,823.724L1342.43,823.724C1365.92,823.724 1385,807.879 1385,788.362Z"/>
            </g>
            <g transform="matrix(1.22581,0,0,1,3.25806,1278.33)">
                <path d="M1385,788.362C1385,768.845 1372.07,753 1356.15,753L1165.85,753C1149.93,753 1137,768.845 1137,788.362C1137,807.879 1149.93,823.724 1165.85,823.724L1356.15,823.724C1372.07,823.724 1385,807.879 1385,788.362Z"/>
            </g>
            <g transform="matrix(0.802419,0,0,1,229.125,1458.25)">
                <path d="M1385,788.362C1385,768.845 1365.25,753 1340.93,753L1181.07,753C1156.75,753 1137,768.845 1137,788.362C1137,807.879 1156.75,823.724 1181.07,823.724L1340.93,823.724C1365.25,823.724 1385,807.879 1385,788.362Z"/>
            </g>
            <g transform="matrix(0.802419,0,0,1,954.573,1458.25)">
                <path d="M1385,788.362C1385,768.845 1365.25,753 1340.93,753L1181.07,753C1156.75,753 1137,768.845 1137,788.362C1137,807.879 1156.75,823.724 1181.07,823.724L1340.93,823.724C1365.25,823.724 1385,807.879 1385,788.362Z"/>
            </g>
            <g transform="matrix(2.68884,0,0,1.42418,-2224.04,-172.095)">
                <path d="M1385,788.362C1385,768.845 1376.61,753 1366.27,753L1155.73,753C1145.39,753 1137,768.845 1137,788.362C1137,807.879 1145.39,823.724 1155.73,823.724L1366.27,823.724C1376.61,823.724 1385,807.879 1385,788.362Z"/>
            </g>
            <g transform="matrix(1.74529,0,0,1.42418,-893.949,12.96)">
                <path d="M1385,788.362C1385,768.845 1372.07,753 1356.14,753L1165.86,753C1149.93,753 1137,768.845 1137,788.362C1137,807.879 1149.93,823.724 1165.86,823.724L1356.14,823.724C1372.07,823.724 1385,807.879 1385,788.362Z"/>
            </g>
            <g transform="matrix(0.700938,0,0,1.42418,662.034,-349.04)">
                <path d="M1385,788.362C1385,768.845 1352.81,753 1313.15,753L1208.85,753C1169.19,753 1137,768.845 1137,788.362C1137,807.879 1169.19,823.724 1208.85,823.724L1313.15,823.724C1352.81,823.724 1385,807.879 1385,788.362Z"/>
            </g>
            <g transform="matrix(1.96707,0,0,1.42418,-1175.5,208.425)">
                <path d="M1385,788.362C1385,768.845 1373.53,753 1359.4,753L1162.6,753C1148.47,753 1137,768.845 1137,788.362C1137,807.879 1148.47,823.724 1162.6,823.724L1359.4,823.724C1373.53,823.724 1385,807.879 1385,788.362Z"/>
            </g>
            <g transform="matrix(2.31787,0,0,1.42418,-1623.25,400.228)">
                <path d="M1385,788.362C1385,768.845 1375.26,753 1363.27,753L1158.73,753C1146.74,753 1137,768.845 1137,788.362C1137,807.879 1146.74,823.724 1158.73,823.724L1363.27,823.724C1375.26,823.724 1385,807.879 1385,788.362Z"/>
            </g>
            <g transform="matrix(0.671003,0,0,1.42418,1232.49,400.228)">
                <path d="M1385,788.362C1385,768.845 1351.37,753 1309.94,753L1212.06,753C1170.63,753 1137,768.845 1137,788.362C1137,807.879 1170.63,823.724 1212.06,823.724L1309.94,823.724C1351.37,823.724 1385,807.879 1385,788.362Z"/>
            </g>
            <g transform="matrix(4.49052,0,0,1.42418,-4101.37,586.966)">
                <path d="M1385,788.362C1385,768.845 1379.98,753 1373.79,753L1148.21,753C1142.03,753 1137,768.845 1137,788.362C1137,807.879 1142.03,823.724 1148.21,823.724L1373.79,823.724C1379.98,823.724 1385,807.879 1385,788.362Z"/>
            </g>
            <g transform="matrix(4.28057,0,0,1.42418,-3862.67,773.15)">
                <path d="M1385,788.362C1385,768.845 1379.73,753 1373.24,753L1148.77,753C1142.27,753 1137,768.845 1137,788.362C1137,807.879 1142.27,823.724 1148.77,823.724L1373.24,823.724C1379.73,823.724 1385,807.879 1385,788.362Z"/>
            </g>
            <g transform="matrix(0.99527,0,0,1.42418,-24.0933,964.286)">
                <path d="M1385,788.362C1385,768.845 1362.33,753 1334.4,753L1187.6,753C1159.67,753 1137,768.845 1137,788.362C1137,807.879 1159.67,823.724 1187.6,823.724L1334.4,823.724C1362.33,823.724 1385,807.879 1385,788.362Z"/>
            </g>
            <g transform="matrix(0.896523,0,0,1.42418,816.686,967.286)">
                <path d="M1385,788.362C1385,768.845 1359.83,753 1328.83,753L1193.17,753C1162.17,753 1137,768.845 1137,788.362C1137,807.879 1162.17,823.724 1193.17,823.724L1328.83,823.724C1359.83,823.724 1385,807.879 1385,788.362Z"/>
            </g>
        </g>
    </g>
</svg>
